<?xml version="1.0" encoding="UTF-8"?>
<svg id="Layer_1" data-name="Layer 1" xmlns="http://www.w3.org/2000/svg" viewBox="0 0 573.09 120.75">
  <defs>
    <style>
      .cls-1, .cls-2 {
        fill: #000;
        stroke-width: 0px;
      }

      .cls-2 {
        fill-rule: evenodd;
      }
    </style>
  </defs>
  <g>
    <path class="cls-1" d="M152.71,15.09h13.58l44.12,64.17V15.09h14.62v90.57h-13.58l-44.12-64.17v64.17h-14.62V15.09Z"/>
    <path class="cls-1" d="M247.35,42.84c4.87-2.8,10.46-4.2,16.75-4.2s12.01,1.29,16.88,3.88c4.87,2.59,8.71,6.26,11.51,10.99,2.8,4.74,4.25,10.31,4.33,16.69,0,1.73-.13,3.5-.39,5.31h-49.94v.78c.34,5.78,2.16,10.35,5.43,13.71,3.28,3.36,7.63,5.05,13.07,5.05,4.31,0,7.93-1.01,10.87-3.04,2.93-2.03,4.87-4.9,5.82-8.6h13.97c-1.21,6.73-4.46,12.25-9.77,16.56-5.31,4.31-11.92,6.47-19.86,6.47-6.9,0-12.92-1.4-18.05-4.2-5.13-2.8-9.1-6.75-11.9-11.84-2.8-5.09-4.2-10.99-4.2-17.73s1.36-12.79,4.07-17.92c2.72-5.13,6.51-9.1,11.39-11.9h0ZM276.85,53.97c-3.24-2.72-7.31-4.08-12.23-4.08-4.57,0-8.52,1.4-11.84,4.2-3.32,2.8-5.24,6.53-5.76,11.19h35.58c-.6-4.83-2.52-8.6-5.76-11.32h0Z"/>
    <path class="cls-1" d="M311.24,39.41l15.14,50.72,15.14-50.72h12.81l14.49,50.72,15.66-50.72h14.23l-21.99,66.24h-15.01l-13.97-45.02-14.49,45.02-15.14.13-21.6-66.37h14.75Z"/>
    <path class="cls-1" d="M418.68,20.91v18.5h16.04v12.29h-16.04v34.54c0,2.59.52,4.42,1.55,5.5,1.03,1.08,2.8,1.62,5.31,1.62h10.61v12.29h-13.46c-6.3,0-10.87-1.47-13.71-4.4-2.84-2.93-4.27-7.46-4.27-13.59V20.91h13.97Z"/>
    <path class="cls-1" d="M441.45,90.32c-2.8-5.13-4.2-11.06-4.2-17.79s1.4-12.53,4.2-17.66c2.8-5.13,6.77-9.12,11.9-11.97,5.13-2.84,11.02-4.27,17.66-4.27s12.53,1.42,17.66,4.27c5.13,2.84,9.1,6.83,11.9,11.97,2.8,5.13,4.2,11.02,4.2,17.66s-1.4,12.66-4.2,17.79c-2.8,5.13-6.77,9.1-11.9,11.9-5.13,2.8-11.02,4.2-17.66,4.2s-12.53-1.4-17.66-4.2c-5.13-2.8-9.1-6.77-11.9-11.9ZM490.55,72.54c0-6.47-1.79-11.75-5.37-15.85-3.58-4.1-8.3-6.15-14.17-6.15s-10.57,2.05-14.1,6.15c-3.54,4.1-5.31,9.38-5.31,15.85s1.77,11.75,5.31,15.85c3.54,4.1,8.24,6.15,14.1,6.15s10.59-2.05,14.17-6.15c3.58-4.1,5.37-9.38,5.37-15.85Z"/>
    <path class="cls-1" d="M573.09,69.17v36.49h-14.1v-35.71c0-6.3-1.33-11.09-4.01-14.36-2.68-3.28-6.6-4.91-11.77-4.91-5.52,0-9.85,1.92-13,5.76s-4.72,9.12-4.72,15.85v33.38h-13.97V39.41h12.16l1.55,8.67c5.01-6.3,12.08-9.44,21.22-9.44,7.85,0,14.26,2.42,19.21,7.25,4.96,4.83,7.44,12.59,7.44,23.29h0Z"/>
  </g>
  <path class="cls-2" d="M48.86,1.26c2.9-1.67,6.47-1.67,9.37,0l44.17,25.5c2.9,1.67,4.69,4.77,4.69,8.12v51.01c0,3.35-1.79,6.44-4.69,8.12l-44.17,25.5c-2.9,1.68-6.47,1.68-9.37,0L4.69,94c-2.9-1.67-4.69-4.77-4.69-8.12v-51.01c0-3.35,1.79-6.44,4.69-8.12L48.86,1.26ZM52.13,7.92c.7-1.21,2.44-1.21,3.14,0l44.77,77.55c.7,1.21-.17,2.72-1.57,2.72H8.93c-1.4,0-2.27-1.51-1.57-2.72L52.13,7.92ZM76.24,60.97c0,12.6-10.21,22.81-22.81,22.81s-22.81-10.21-22.81-22.81,10.21-22.81,22.81-22.81,22.81,10.21,22.81,22.81ZM44.04,53.15c0-.87.7-1.57,1.57-1.57h15.64c.87,0,1.57.7,1.57,1.57v15.64c0,.87-.7,1.57-1.57,1.57h-15.64c-.87,0-1.57-.7-1.57-1.57v-15.64Z"/>
</svg>